<svg width="320" height="320" viewBox="0 0 320 320" fill="none" xmlns="http://www.w3.org/2000/svg">
<path d="M63.5949 110.686L60.0234 139.534L128.682 75L63.5949 110.686Z" fill="#1C6B40"/>
<path d="M37.4302 110.33L107.474 111.185L128.684 75L37.4302 110.33Z" fill="#27AB51"/>
<path d="M120.01 173.083C119.135 165.746 123.727 162.897 126.569 162.541C130.432 162.114 134.587 164.749 135.389 171.445L139.033 202.287L166.22 191.745L163.013 164.892C160.753 146.799 152.371 137.183 138.304 138.038C125.695 138.822 118.406 145.588 114.47 152.284C114.325 152.498 113.814 152.711 113.669 152.284L110.972 143.665C110.826 143.238 110.462 142.953 109.951 143.024L89.1787 145.375C88.6685 145.375 88.3041 145.873 88.377 146.372L94.2079 195.663L96.9047 218.456L124.091 207.914L119.937 172.94L120.01 173.083Z" fill="#27AB51"/>
<path d="M69.7912 147.725L47.415 150.218L57.4005 233.912L79.0478 225.507L69.7912 147.725Z" fill="#27AB51"/>
<path d="M235.461 164.963L208.275 175.505L211.846 205.278C212.721 212.615 208.129 215.464 205.286 215.82C201.423 216.248 197.269 213.612 196.467 206.917L193.406 181.203L166.219 191.745L168.77 213.47C171.03 231.562 179.412 241.178 193.479 240.323C206.088 239.54 213.377 232.773 217.313 226.077C217.458 225.864 217.969 225.65 218.114 226.077L220.811 234.696C220.957 235.124 221.321 235.408 221.832 235.337L242.604 232.987C243.114 232.987 243.479 232.488 243.406 231.989L237.575 182.699L235.461 165.105V164.963Z" fill="#1C6B40"/>
<path d="M253.391 222.943L263.668 204.851C273.071 209.766 278.173 212.473 285.753 211.618C292.313 210.906 294.426 207.843 293.989 203.783C293.333 198.44 286.117 197.443 276.496 194.38C266.511 191.175 253.537 185.548 251.788 171.16C249.82 154.706 261.627 142.312 281.525 140.032C296.176 138.394 304.266 142.881 312.867 147.583L302.517 165.247C295.155 161.472 291.219 159.122 284.659 159.834C279.557 160.404 277.006 163.039 277.444 166.957C278.1 172.299 284.951 172.869 294.572 175.647C304.703 178.496 317.896 183.482 319.791 199.295C321.686 215.108 310.68 228.998 287.648 231.633C275.33 233.058 263.887 229.425 253.318 223.014L253.391 222.943Z" fill="#1C6B40"/>
<path d="M0 127.479L21.7202 119.074L33.8922 221.502C34.9855 230.69 40.1097 237.398 45.9406 238.537C39.604 240.898 35.1475 243.334 28.5149 244.046C20.4245 244.972 12.549 238.704 10.9804 226.111L0 127.479Z" fill="#27AB51"/>
</svg>
